<svg width="28" height="19" viewBox="0 0 28 19" fill="none" xmlns="http://www.w3.org/2000/svg">
<path d="M27.5504 17.3718C27.5504 18.2713 26.8213 19.0004 25.9219 19.0004H1.62854C0.729118 19.0005 0 18.2713 0 17.3718V1.62908C0 0.72966 0.729118 0.000488281 1.62854 0.000488281H25.9219C26.8214 0.000488281 27.5504 0.72966 27.5504 1.62908V17.3718Z" fill="#306FC5"/>
<path opacity="0.15" d="M1.15782 17.3718V1.62908C1.15782 0.72966 1.88704 0.000488281 2.78647 0.000488281H1.62849C0.729118 0.000488281 0 0.729606 0 1.62908V17.3718C0 18.2713 0.729118 19.0005 1.62854 19.0005H2.78652C1.8871 19.0005 1.15782 18.2713 1.15782 17.3718Z" fill="#202121"/>
<path d="M4.01367 7.60333H4.83685L4.42537 6.55566L4.01367 7.60333Z" fill="white"/>
<path d="M8.39136 11.1206V11.6071H9.77582V12.131H8.39136V12.6924H9.92541L10.6363 11.9065L9.96286 11.1206H8.39136Z" fill="white"/>
<path d="M19.2045 6.55566L18.7555 7.60333H19.6162L19.2045 6.55566Z" fill="white"/>
<path d="M12.3949 12.9911V10.8584L11.422 11.9061L12.3949 12.9911Z" fill="white"/>
<path d="M14.2283 11.4575C14.1909 11.233 14.041 11.1206 13.8164 11.1206H13.0309V11.7941H13.8541C14.0786 11.7941 14.2283 11.6819 14.2283 11.4575Z" fill="white"/>
<path d="M16.8473 11.72C16.9221 11.6825 16.9597 11.5701 16.9597 11.4581C16.9972 11.3086 16.9221 11.2336 16.8473 11.1961C16.7727 11.1587 16.6603 11.1587 16.5482 11.1587H15.7997V11.7574H16.5481C16.6602 11.7574 16.7726 11.7574 16.8473 11.72Z" fill="white"/>
<path d="M22.235 5.58301V6.03199L22.0107 5.58301H20.2523V6.03199L20.0277 5.58301H17.633C17.2215 5.58301 16.8846 5.65791 16.5854 5.80755V5.58301H14.9018V5.62046V5.80755C14.7148 5.65796 14.4903 5.58301 14.1909 5.58301H8.16695L7.7552 6.51843L7.34372 5.58301H5.99682H5.43553V6.03199L5.24844 5.58301H5.21099H3.60214L2.8537 7.3415L1.99324 9.24969L1.97742 9.28719H1.99324H3.90148H3.92537L3.93893 9.24969L4.16353 8.68856H4.64992L4.87441 9.28719H7.04433V9.24969V8.83821L7.23153 9.28714H8.31649L8.50348 8.83821V9.24969V9.28719H9.36405H13.6669H13.7044V8.31432H13.7794C13.8541 8.31432 13.8541 8.31432 13.8541 8.42662V9.24974H16.5481V9.02525C16.7726 9.13766 17.1091 9.24974 17.5581 9.24974H18.6808L18.9053 8.65122H19.4289L19.6534 9.24974H21.8235V8.87566V8.68862L22.1604 9.24974H22.235H22.2726H23.9189V5.58301H22.2351H22.235ZM9.55125 8.72607H9.17701H8.95257V8.50174V6.66813L8.91512 6.75395V6.75293L8.0447 8.72607H8.01715H7.81703H7.49326L6.59534 6.66813V8.72607H5.32329L5.0614 8.16484H3.78913L3.52718 8.72607H2.86947L3.97633 6.1069H4.91164L5.95926 8.61372V6.1069H6.1837H6.95054L6.96819 6.1444H6.96948L7.44155 7.17184L7.78055 7.94164L7.79255 7.90284L8.54082 6.10695H9.5512V8.72607H9.55125ZM12.133 6.66813H10.6738V7.15451H12.0956V7.67829H10.6738V8.20229H12.133V8.76336H10.0377V6.10695H12.133V6.66813ZM14.8017 7.63293C14.8027 7.63379 14.8039 7.63438 14.8051 7.63519C14.8192 7.65015 14.8314 7.66516 14.8417 7.67953C14.9134 7.77348 14.9713 7.91322 14.9742 8.11813C14.9744 8.12168 14.9746 8.12518 14.9748 8.12873C14.9748 8.13078 14.9752 8.13255 14.9752 8.13465C14.9752 8.13583 14.9751 8.13675 14.9751 8.13788C14.9759 8.15849 14.9765 8.17953 14.9765 8.20229V8.72612H14.4154V8.42667C14.4154 8.27703 14.4154 8.05248 14.3029 7.90284C14.2676 7.86749 14.2318 7.84419 14.1929 7.82761C14.1368 7.79129 14.0305 7.7907 13.8541 7.7907H13.1804V8.72612H12.5445V6.10695H13.9664C14.3029 6.10695 14.5275 6.10695 14.7147 6.2192C14.898 6.32929 15.0088 6.51187 15.013 6.80098C15.0043 7.19917 14.7487 7.41764 14.5649 7.49131C14.5649 7.49131 14.6898 7.51643 14.8017 7.63293ZM16.0617 8.72607H15.4255V6.1069H16.0617V8.72607ZM23.3578 8.72607H22.5345L21.3372 6.74292V8.38922L21.3333 8.38535V8.72768H20.7012V8.72612H20.0651L19.8406 8.16489H18.5309L18.3064 8.76341H17.5955C17.2964 8.76341 16.922 8.68867 16.6976 8.46418C16.4731 8.23969 16.361 7.94034 16.361 7.45401C16.361 7.07988 16.4357 6.70547 16.6976 6.40624C16.8846 6.18158 17.2215 6.10695 17.6329 6.10695H18.2317V6.66813H17.6329C17.4084 6.66813 17.2964 6.70542 17.1465 6.81788C17.0344 6.93007 16.9595 7.15451 16.9595 7.4164C16.9595 7.7158 16.997 7.90284 17.1465 8.05248C17.259 8.16489 17.4085 8.20234 17.5955 8.20234H17.8574L18.7179 6.14451H19.0923H19.6534L20.7012 8.65133V8.52348V7.6784V7.60366V6.14456H21.6365L22.7213 7.97785V6.14456H23.3577V8.72618H23.3578V8.72607Z" fill="white"/>
<path d="M14.2681 7.1981C14.279 7.18643 14.2889 7.17319 14.2973 7.15802C14.3312 7.10437 14.3701 7.00773 14.3491 6.87584C14.3483 6.86373 14.3461 6.85254 14.3435 6.84172C14.3428 6.83871 14.3429 6.83607 14.3421 6.83306L14.3417 6.83311C14.3231 6.76903 14.2756 6.72964 14.2282 6.70575C14.1532 6.66846 14.0409 6.66846 13.9287 6.66846H13.1803V7.26719H13.9287C14.0409 7.26719 14.1532 7.26719 14.2282 7.22969C14.2394 7.22399 14.2494 7.21624 14.2591 7.20747L14.2592 7.20795C14.2592 7.2079 14.2631 7.20391 14.2681 7.1981Z" fill="white"/>
<path d="M25.565 12.468C25.565 12.2061 25.4903 11.9441 25.3781 11.7571V10.0735H25.3764V9.96104C25.3764 9.96104 23.8081 9.96104 23.5747 9.96104C23.3414 9.96104 23.0582 10.1855 23.0582 10.1855V9.96104H21.3372C21.0751 9.96104 20.7386 10.0359 20.5887 10.1855V9.96104H17.5208V10.0735V10.1854C17.2964 9.9985 16.8845 9.96099 16.6976 9.96099H14.6771V10.0734V10.1854C14.49 9.99844 14.0408 9.96094 13.8162 9.96094H11.5716L11.0477 10.5222L10.5613 9.96094H10.4046H10.1497H7.19397V10.0733V10.3689V13.7401H10.4866L11.0276 13.199L11.4965 13.7401H11.5341H13.4313H13.5173H13.5547H13.592V13.366V12.8796H13.7792C14.0408 12.8796 14.3777 12.8796 14.6396 12.7672V13.7025V13.7775H16.3234V13.7025V12.8047H16.398C16.5104 12.8047 16.5104 12.8047 16.5104 12.9169V13.7025V13.7775H21.5988C21.9358 13.7775 22.2723 13.7025 22.4594 13.5529V13.7025V13.7775H24.0684C24.4049 13.7775 24.7419 13.7401 24.9664 13.5904C25.3109 13.3837 25.528 13.0178 25.5603 12.5815C25.5618 12.5686 25.5637 12.5557 25.5649 12.5427L25.5627 12.5406C25.5641 12.5164 25.565 12.4925 25.565 12.468ZM13.7792 12.2436H13.0307V12.3556V12.5802V12.8047V13.2163H11.8009L11.0851 12.3931L11.0827 12.3958L11.0477 12.3556L10.2246 13.2163H7.83V10.5972H10.262L10.9265 11.325L11.0661 11.4774L11.0851 11.4578L11.8709 10.5973H13.8539C14.2388 10.5973 14.6697 10.6923 14.833 11.0838C14.8527 11.1614 14.8641 11.2476 14.8641 11.3455C14.8641 12.0938 14.3402 12.2436 13.7792 12.2436ZM17.5208 12.2061C17.5955 12.3181 17.6329 12.468 17.6329 12.6926V13.2162H16.997V12.8796C16.997 12.7297 16.997 12.468 16.8846 12.3556C16.8099 12.2436 16.6601 12.2436 16.4357 12.2436H15.7623V13.2163H15.1263V10.5598H16.548C16.8471 10.5598 17.109 10.5598 17.2964 10.6719C17.4834 10.7843 17.6329 10.9714 17.6329 11.2707C17.6329 11.6822 17.3712 11.9067 17.184 11.9816C17.3712 12.0562 17.4834 12.1312 17.5208 12.2061ZM20.1025 11.1208H18.6431V11.6072H20.065V12.1312H18.6431V12.6551H20.1025V13.2162H18.0072V10.5597H20.1025V11.1208ZM21.6739 13.2163H20.4765V12.6551H21.6739C21.7859 12.6551 21.8609 12.6551 21.9359 12.5802C21.9734 12.5427 22.0106 12.468 22.0106 12.3931C22.0106 12.3181 21.9734 12.2436 21.9359 12.2061C21.8984 12.1687 21.8234 12.1313 21.7112 12.1313C21.1125 12.0938 20.4017 12.1313 20.4017 11.3082C20.4017 10.934 20.6261 10.5224 21.2997 10.5224H22.5343V11.1584H21.3745C21.2623 11.1584 21.1874 11.1584 21.1125 11.1958C21.0378 11.2333 21.0378 11.3082 21.0378 11.383C21.0378 11.4953 21.1125 11.5327 21.1873 11.5698C21.2623 11.6073 21.3371 11.6073 21.4118 11.6073H21.7486C22.0854 11.6073 22.3098 11.6822 22.4595 11.8319C22.5718 11.9442 22.6466 12.1313 22.6466 12.3931C22.6466 12.9542 22.3099 13.2163 21.6739 13.2163ZM24.8916 12.9542C24.7421 13.1041 24.4801 13.2163 24.1058 13.2163H22.9087V12.6551H24.1057C24.218 12.6551 24.293 12.6551 24.3678 12.5802C24.4051 12.5427 24.4426 12.468 24.4426 12.3931C24.4426 12.3181 24.4051 12.2436 24.3678 12.2061C24.3303 12.1687 24.2556 12.1313 24.1433 12.1313C23.5448 12.0938 22.8337 12.1313 22.8337 11.3083C22.8337 10.9526 23.0372 10.6314 23.539 10.536C23.599 10.5277 23.6623 10.5224 23.7318 10.5224H24.9666V11.1584H24.1433H23.8441H23.8066C23.6943 11.1584 23.6196 11.1584 23.5448 11.1958C23.5072 11.2333 23.4697 11.3082 23.4697 11.383C23.4697 11.4953 23.5072 11.5327 23.6196 11.5698C23.6943 11.6073 23.7692 11.6073 23.8441 11.6073H23.8812H24.1807C24.3442 11.6073 24.4679 11.6275 24.581 11.6673C24.6847 11.7048 25.0278 11.8583 25.1045 12.2589C25.1112 12.3008 25.1161 12.3446 25.1161 12.3931C25.1161 12.6177 25.0412 12.8047 24.8916 12.9542Z" fill="white"/>
</svg>
