<svg width="32" height="19" viewBox="0 0 32 19" fill="none" xmlns="http://www.w3.org/2000/svg">
<path d="M31.6666 9.50046C31.6666 14.728 27.4444 19.0004 22.1666 19.0004C16.9391 19.0004 12.6666 14.728 12.6666 9.50046C12.6666 4.27296 16.8888 0.000488281 22.1163 0.000488281C27.4444 0.000488281 31.6666 4.27296 31.6666 9.50046Z" fill="#FFB600"/>
<path d="M22.1666 0.000488281C27.3941 0.000488281 31.6666 4.27296 31.6666 9.50046C31.6666 14.728 27.4444 19.0004 22.1666 19.0004C16.9391 19.0004 12.6666 14.728 12.6666 9.50046" fill="#F7981D"/>
<path d="M22.1666 0.000488281C27.3941 0.000488281 31.6666 4.27296 31.6666 9.50046C31.6666 14.728 27.4444 19.0004 22.1666 19.0004" fill="#FF8500"/>
<path d="M9.39945 0.000488281C4.22221 0.0507527 0 4.27296 0 9.50046C0 14.728 4.22221 19.0004 9.49998 19.0004C11.9629 19.0004 14.1746 18.0454 15.8836 16.5375C16.2354 16.2359 16.537 15.884 16.8386 15.5322H14.8783C14.6269 15.2306 14.3756 14.8788 14.1746 14.5772H17.5423C17.7433 14.2756 17.9444 13.9237 18.0952 13.5719H13.6217C13.4709 13.2703 13.3201 12.9184 13.2195 12.5666H18.447C18.7486 11.6116 18.9497 10.6063 18.9497 9.55073C18.9497 8.84703 18.8492 8.19359 18.7486 7.54015H12.918C12.9682 7.1883 13.0688 6.88671 13.1693 6.53486H18.3968C18.2963 6.18301 18.1455 5.83116 17.9947 5.52957H13.5714C13.7222 5.17772 13.9232 4.87614 14.1243 4.52429H17.492C17.291 4.17244 17.0396 3.82058 16.7381 3.519H14.8783C15.1799 3.16715 15.4814 2.86556 15.8333 2.56397C14.1746 1.00578 11.9127 0.101017 9.44971 0.101017C9.44971 0.000488184 9.44971 0.000488281 9.39945 0.000488281Z" fill="#FF5050"/>
<path d="M0 9.50052C0 14.728 4.22221 19.0005 9.49998 19.0005C11.9629 19.0005 14.1746 18.0455 15.8836 16.5375C16.2354 16.236 16.537 15.8841 16.8386 15.5323H14.8783C14.6269 15.2307 14.3756 14.8788 14.1746 14.5772H17.5423C17.7433 14.2756 17.9444 13.9238 18.0952 13.5719H13.6217C13.4709 13.2704 13.3201 12.9185 13.2195 12.5667H18.447C18.7486 11.6116 18.9497 10.6063 18.9497 9.55079C18.9497 8.84708 18.8492 8.19365 18.7486 7.54021H12.918C12.9682 7.18836 13.0688 6.88677 13.1693 6.53492H18.3968C18.2963 6.18307 18.1455 5.83122 17.9947 5.52963H13.5714C13.7222 5.17778 13.9232 4.87619 14.1243 4.52434H17.492C17.291 4.17249 17.0396 3.82064 16.7381 3.51906H14.8783C15.1799 3.1672 15.4814 2.86562 15.8333 2.56403C14.1746 1.00583 11.9127 0.101074 9.44971 0.101074H9.39945" fill="#E52836"/>
<path d="M9.49994 19.0005C11.9629 19.0005 14.1745 18.0455 15.8835 16.5375C16.2354 16.236 16.537 15.8841 16.8386 15.5323H14.8782C14.6269 15.2307 14.3756 14.8788 14.1745 14.5772H17.5423C17.7433 14.2756 17.9444 13.9238 18.0952 13.5719H13.6216C13.4708 13.2704 13.32 12.9185 13.2195 12.5667H18.447C18.7486 11.6116 18.9497 10.6063 18.9497 9.55079C18.9497 8.84708 18.8491 8.19365 18.7486 7.54021H12.9179C12.9682 7.18836 13.0687 6.88677 13.1692 6.53492H18.3967C18.2962 6.18307 18.1454 5.83122 17.9946 5.52963H13.5714C13.7222 5.17778 13.9232 4.87619 14.1243 4.52434H17.492C17.2909 4.17249 17.0396 3.82064 16.738 3.51906H14.8782C15.1798 3.1672 15.4814 2.86562 15.8333 2.56403C14.1745 1.00583 11.9126 0.101074 9.44968 0.101074H9.39941" fill="#CB2026"/>
<path d="M12.8677 11.913L13.0185 11.0585C12.9682 11.0585 12.8677 11.1088 12.7672 11.1088C12.4153 11.1088 12.3651 10.9077 12.4153 10.8072L12.7169 9.04794H13.2698L13.4206 8.09292H12.918L13.0185 7.48975H12.0132C12.0132 7.48975 11.41 10.8072 11.41 11.2093C11.41 11.8125 11.7619 12.0638 12.2143 12.0638C12.5159 12.0638 12.7672 11.9633 12.8677 11.913Z" fill="white"/>
<path d="M13.2196 10.3049C13.2196 11.7123 14.1746 12.0641 14.9789 12.0641C15.7328 12.0641 16.0344 11.9133 16.0344 11.9133L16.2355 10.9583C16.2355 10.9583 15.6826 11.2096 15.1799 11.2096C14.0741 11.2096 14.2752 10.4054 14.2752 10.4054H16.336C16.336 10.4054 16.4868 9.75197 16.4868 9.50065C16.4868 8.84721 16.1349 8.04298 15.0291 8.04298C13.9736 7.94245 13.2196 9.04827 13.2196 10.3049ZM14.9789 8.84721C15.5318 8.84721 15.4312 9.50065 15.4312 9.55092H14.3254C14.3254 9.50065 14.426 8.84721 14.9789 8.84721Z" fill="white"/>
<path d="M21.3623 11.9132L21.5634 10.8074C21.5634 10.8074 21.0607 11.0588 20.7089 11.0588C20.0052 11.0588 19.7036 10.5058 19.7036 9.90267C19.7036 8.69632 20.3068 8.04289 21.0105 8.04289C21.5131 8.04289 21.9152 8.34447 21.9152 8.34447L22.066 7.28892C22.066 7.28892 21.4629 7.0376 20.9099 7.0376C19.7539 7.0376 18.5978 8.04289 18.5978 9.95294C18.5978 11.2095 19.201 12.064 20.4073 12.064C20.8094 12.064 21.3623 11.9132 21.3623 11.9132Z" fill="white"/>
<path d="M7.33852 7.94189C6.63481 7.94189 6.13217 8.14295 6.13217 8.14295L5.98138 8.99745C5.98138 8.99745 6.43376 8.79639 7.08719 8.79639C7.43904 8.79639 7.74063 8.84665 7.74063 9.14824C7.74063 9.3493 7.69037 9.39956 7.69037 9.39956C7.69037 9.39956 7.38878 9.39956 7.23799 9.39956C6.38349 9.39956 5.42847 9.75141 5.42847 10.9075C5.42847 11.8123 6.03164 12.0133 6.38349 12.0133C7.08719 12.0133 7.38878 11.5609 7.43904 11.5609L7.38878 11.963H8.29354L8.69565 9.19851C8.69565 7.99216 7.69037 7.94189 7.33852 7.94189ZM7.53957 10.2038C7.53957 10.3546 7.43904 11.1588 6.83587 11.1588C6.53428 11.1588 6.43376 10.9075 6.43376 10.7567C6.43376 10.5054 6.58455 10.1535 7.33852 10.1535C7.48931 10.2038 7.53957 10.2038 7.53957 10.2038Z" fill="white"/>
<path d="M9.65071 12.0133C9.90203 12.0133 11.1586 12.0636 11.1586 10.7064C11.1586 9.4498 9.9523 9.70112 9.9523 9.19848C9.9523 8.94715 10.1534 8.84663 10.5052 8.84663C10.656 8.84663 11.2089 8.89689 11.2089 8.89689L11.3597 7.99213C11.3597 7.99213 11.0079 7.8916 10.4047 7.8916C9.65071 7.8916 8.89674 8.19319 8.89674 9.19848C8.89674 10.3546 10.1534 10.254 10.1534 10.7064C10.1534 11.008 9.8015 11.0583 9.55018 11.0583C9.0978 11.0583 8.64542 10.9075 8.64542 10.9075L8.49463 11.8122C8.54489 11.9128 8.79622 12.0133 9.65071 12.0133Z" fill="white"/>
<path d="M29.7063 7.13818L29.5052 8.49532C29.5052 8.49532 29.1031 7.99268 28.5502 7.99268C27.6454 7.99268 26.8412 9.0985 26.8412 10.4054C26.8412 11.2096 27.2433 12.0641 28.0978 12.0641C28.701 12.0641 29.0528 11.662 29.0528 11.662L29.0026 12.0138H30.0078L30.7618 7.18845L29.7063 7.13818ZM29.2539 9.8022C29.2539 10.3551 29.0026 11.0588 28.4496 11.0588C28.0978 11.0588 27.8967 10.7572 27.8967 10.2546C27.8967 9.45035 28.2486 8.9477 28.701 8.9477C29.0528 8.9477 29.2539 9.19902 29.2539 9.8022Z" fill="white"/>
<path d="M1.85981 11.9636L2.46298 8.34453L2.56351 11.9636H3.26721L4.57409 8.34453L4.02118 11.9636H5.07673L5.88096 7.13818H4.22224L3.21695 10.1038L3.16668 7.13818H1.70902L0.904785 11.9636H1.85981Z" fill="white"/>
<path d="M17.4418 11.9631C17.7433 10.3044 17.7936 8.94724 18.4973 9.19856C18.5978 8.54512 18.7486 8.2938 18.8492 8.04248C18.8492 8.04248 18.7989 8.04248 18.6481 8.04248C18.1957 8.04248 17.8439 8.64565 17.8439 8.64565L17.9444 8.09275H16.9894L16.3359 12.0134H17.4418V11.9631Z" fill="white"/>
<path d="M23.6746 7.94189C22.9709 7.94189 22.4682 8.14295 22.4682 8.14295L22.3174 8.99745C22.3174 8.99745 22.7698 8.79639 23.4233 8.79639C23.7751 8.79639 24.0767 8.84665 24.0767 9.14824C24.0767 9.3493 24.0264 9.39956 24.0264 9.39956C24.0264 9.39956 23.7248 9.39956 23.574 9.39956C22.7196 9.39956 21.7645 9.75141 21.7645 10.9075C21.7645 11.8123 22.3677 12.0133 22.7196 12.0133C23.4233 12.0133 23.7248 11.5609 23.7751 11.5609L23.7248 11.963H24.6296L25.0317 9.19851C25.082 7.99216 24.0264 7.94189 23.6746 7.94189ZM23.9259 10.2038C23.9259 10.3546 23.8254 11.1588 23.2222 11.1588C22.9206 11.1588 22.8201 10.9075 22.8201 10.7567C22.8201 10.5054 22.9709 10.1535 23.7248 10.1535C23.8756 10.2038 23.8756 10.2038 23.9259 10.2038Z" fill="white"/>
<path d="M25.8862 11.9631C26.1878 10.3044 26.2381 8.94724 26.9418 9.19856C27.0423 8.54512 27.1931 8.2938 27.2936 8.04248C27.2936 8.04248 27.2434 8.04248 27.0926 8.04248C26.6402 8.04248 26.2883 8.64565 26.2883 8.64565L26.3889 8.09275H25.4338L24.7804 12.0134H25.8862V11.9631Z" fill="white"/>
<path d="M11.3096 11.2093C11.3096 11.8125 11.6614 12.0638 12.1138 12.0638C12.4657 12.0638 12.7672 11.9633 12.8678 11.913L13.0186 11.0585C12.9683 11.0585 12.8678 11.1088 12.7672 11.1088C12.4154 11.1088 12.3651 10.9077 12.4154 10.8072L12.717 9.04794H13.2699L13.4207 8.09292H12.918L13.0186 7.48975" fill="#DCE5E5"/>
<path d="M13.7222 10.3049C13.7222 11.7123 14.1745 12.0641 14.9788 12.0641C15.7327 12.0641 16.0343 11.9133 16.0343 11.9133L16.2354 10.9583C16.2354 10.9583 15.6825 11.2096 15.1798 11.2096C14.074 11.2096 14.2751 10.4054 14.2751 10.4054H16.3359C16.3359 10.4054 16.4867 9.75197 16.4867 9.50065C16.4867 8.84721 16.1349 8.04298 15.029 8.04298C13.9735 7.94245 13.7222 9.04827 13.7222 10.3049ZM14.9788 8.84721C15.5317 8.84721 15.6322 9.50065 15.6322 9.55092H14.3253C14.3253 9.50065 14.4259 8.84721 14.9788 8.84721Z" fill="#DCE5E5"/>
<path d="M21.3624 11.9132L21.5634 10.8074C21.5634 10.8074 21.0608 11.0588 20.7089 11.0588C20.0052 11.0588 19.7036 10.5058 19.7036 9.90267C19.7036 8.69632 20.3068 8.04289 21.0105 8.04289C21.5132 8.04289 21.9153 8.34447 21.9153 8.34447L22.0661 7.28892C22.0661 7.28892 21.4629 7.0376 20.91 7.0376C19.7539 7.0376 19.1005 8.04289 19.1005 9.95294C19.1005 11.2095 19.201 12.064 20.4073 12.064C20.8095 12.064 21.3624 11.9132 21.3624 11.9132Z" fill="#DCE5E5"/>
<path d="M5.98138 9.04777C5.98138 9.04777 6.43376 8.84671 7.08719 8.84671C7.43904 8.84671 7.74063 8.89698 7.74063 9.19856C7.74063 9.39962 7.69037 9.44988 7.69037 9.44988C7.69037 9.44988 7.38878 9.44988 7.23799 9.44988C6.38349 9.44988 5.42847 9.80174 5.42847 10.9578C5.42847 11.8626 6.03164 12.0636 6.38349 12.0636C7.08719 12.0636 7.38878 11.6113 7.43904 11.6113L7.38878 12.0134H8.29354L8.69565 9.24883C8.69565 8.09274 7.69037 8.04248 7.28825 8.04248L5.98138 9.04777ZM8.04222 10.2039C8.04222 10.3546 7.43904 11.1589 6.83587 11.1589C6.53428 11.1589 6.43376 10.9076 6.43376 10.7568C6.43376 10.5054 6.58455 10.1536 7.33852 10.1536C7.48931 10.2039 8.04222 10.2039 8.04222 10.2039Z" fill="#DCE5E5"/>
<path d="M8.54492 11.9128C8.54492 11.9128 8.84651 12.0133 9.701 12.0133C9.95233 12.0133 11.2089 12.0636 11.2089 10.7064C11.2089 9.4498 10.0026 9.70112 10.0026 9.19848C10.0026 8.94715 10.2036 8.84663 10.5555 8.84663C10.7063 8.84663 11.2592 8.89689 11.2592 8.89689L11.41 7.99213C11.41 7.99213 11.0581 7.8916 10.455 7.8916C9.701 7.8916 9.44968 8.19319 9.44968 9.19848C9.44968 10.3546 10.2036 10.254 10.2036 10.7064C10.2036 11.008 9.8518 11.0583 9.60048 11.0583" fill="#DCE5E5"/>
<path d="M29.5052 8.49535C29.5052 8.49535 29.1031 7.99271 28.5502 7.99271C27.6454 7.99271 27.3439 9.09852 27.3439 10.4054C27.3439 11.2096 27.2433 12.0641 28.0978 12.0641C28.701 12.0641 29.0528 11.662 29.0528 11.662L29.0026 12.0139H30.0079L30.7618 7.18848L29.5052 8.49535ZM29.455 9.80223C29.455 10.3551 29.0026 11.0588 28.4497 11.0588C28.0978 11.0588 27.8968 10.7573 27.8968 10.2546C27.8968 9.45038 28.2486 8.94773 28.701 8.94773C29.0528 8.94773 29.455 9.19905 29.455 9.80223Z" fill="#DCE5E5"/>
<path d="M1.85981 11.9636L2.46298 8.34453L2.56351 11.9636H3.26721L4.57409 8.34453L4.02118 11.9636H5.07673L5.88096 7.13818H4.62435L3.21695 10.1038L3.16668 7.13818H2.61378L0.904785 11.9636H1.85981Z" fill="#DCE5E5"/>
<path d="M16.3862 11.9631H17.4418C17.7434 10.3044 17.7936 8.94724 18.4973 9.19856C18.5979 8.54512 18.7487 8.2938 18.8492 8.04248C18.8492 8.04248 18.7989 8.04248 18.6481 8.04248C18.1957 8.04248 17.8439 8.64565 17.8439 8.64565L17.9444 8.09275" fill="#DCE5E5"/>
<path d="M22.3174 9.04777C22.3174 9.04777 22.7698 8.84671 23.4233 8.84671C23.7751 8.84671 24.0767 8.89698 24.0767 9.19856C24.0767 9.39962 24.0264 9.44988 24.0264 9.44988C24.0264 9.44988 23.7248 9.44988 23.574 9.44988C22.7196 9.44988 21.7645 9.80174 21.7645 10.9578C21.7645 11.8626 22.3677 12.0636 22.7196 12.0636C23.4233 12.0636 23.7248 11.6113 23.7751 11.6113L23.7248 12.0134H24.6296L25.0317 9.24883C25.0317 8.09274 24.0264 8.04248 23.6243 8.04248L22.3174 9.04777ZM24.3783 10.2039C24.3783 10.3546 23.7751 11.1589 23.1719 11.1589C22.8703 11.1589 22.7698 10.9076 22.7698 10.7568C22.7698 10.5054 22.9206 10.1536 23.6746 10.1536C23.8756 10.2039 24.3783 10.2039 24.3783 10.2039Z" fill="#DCE5E5"/>
<path d="M24.8307 11.9631H25.8862C26.1878 10.3044 26.2381 8.94724 26.9418 9.19856C27.0423 8.54512 27.1931 8.2938 27.2936 8.04248C27.2936 8.04248 27.2434 8.04248 27.0926 8.04248C26.6402 8.04248 26.2884 8.64565 26.2884 8.64565L26.3889 8.09275" fill="#DCE5E5"/>
</svg>
