<svg width="36" height="10" viewBox="0 0 36 10" fill="none" xmlns="http://www.w3.org/2000/svg">
<path d="M24.0909 0.000488281H21.3423C21.1806 0.000488281 21.0189 0.162173 20.9381 0.323858L19.8063 7.43801C19.8063 7.59969 19.8871 7.68054 20.0488 7.68054H21.504C21.6657 7.68054 21.7465 7.59969 21.7465 7.43801L22.0699 5.41694C22.0699 5.25526 22.2316 5.09357 22.4741 5.09357H23.3633C25.2227 5.09357 26.2737 4.2043 26.5162 2.42577C26.6779 1.69818 26.5162 1.05144 26.1928 0.64723C25.7078 0.243017 24.9802 0.000488281 24.0909 0.000488281ZM24.4143 2.66829C24.2526 3.63841 23.525 3.63841 22.7974 3.63841H22.3124L22.6358 1.77903C22.6358 1.69818 22.7166 1.61734 22.8783 1.61734H23.04C23.525 1.61734 24.0101 1.61734 24.2526 1.94071C24.4143 2.02155 24.4143 2.26408 24.4143 2.66829Z" fill="#139AD6"/>
<path d="M4.28466 0.000488281H1.53601C1.37432 0.000488281 1.21264 0.162173 1.1318 0.323858L0 7.43801C0 7.59969 0.0808435 7.68054 0.242529 7.68054H1.53601C1.69769 7.68054 1.85938 7.51885 1.94022 7.35716L2.26359 5.41694C2.26359 5.25526 2.42528 5.09357 2.66781 5.09357H3.55707C5.41645 5.09357 6.46741 4.2043 6.70993 2.42577C6.87162 1.69818 6.70993 1.05144 6.38656 0.64723C5.90151 0.243017 5.25477 0.000488281 4.28466 0.000488281ZM4.60803 2.66829C4.44634 3.63841 3.71876 3.63841 2.99118 3.63841H2.58696L2.91033 1.77903C2.91033 1.69818 2.99118 1.61734 3.15286 1.61734H3.31455C3.7996 1.61734 4.28466 1.61734 4.52718 1.94071C4.60803 2.02155 4.68887 2.26408 4.60803 2.66829Z" fill="#263B80"/>
<path d="M12.6115 2.58747H11.318C11.2371 2.58747 11.0755 2.66831 11.0755 2.74915L10.9946 3.15336L10.9138 2.99168C10.5904 2.58747 10.0245 2.42578 9.37776 2.42578C7.92259 2.42578 6.62911 3.55758 6.38658 5.09359C6.2249 5.90201 6.46743 6.6296 6.87164 7.11465C7.27585 7.59971 7.84175 7.76139 8.56933 7.76139C9.78197 7.76139 10.4287 7.03381 10.4287 7.03381L10.3479 7.43802C10.3479 7.59971 10.4287 7.68055 10.5904 7.68055H11.803C11.9647 7.68055 12.1264 7.51887 12.2073 7.35718L12.9348 2.82999C12.854 2.74915 12.6923 2.58747 12.6115 2.58747ZM10.7521 5.17443C10.5904 5.90201 10.0245 6.46791 9.21607 6.46791C8.81186 6.46791 8.48849 6.30623 8.32681 6.14454C8.16512 5.90201 8.08428 5.57864 8.08428 5.17443C8.16512 4.44685 8.81186 3.88095 9.53944 3.88095C9.94366 3.88095 10.1862 4.04263 10.4287 4.20432C10.6712 4.44685 10.7521 4.85106 10.7521 5.17443Z" fill="#263B80"/>
<path d="M32.337 2.58747H31.0436C30.9627 2.58747 30.801 2.66831 30.801 2.74915L30.7202 3.15336L30.6394 2.99168C30.316 2.58747 29.7501 2.42578 29.1033 2.42578C27.6482 2.42578 26.3547 3.55758 26.1122 5.09359C25.9505 5.90201 26.193 6.6296 26.5972 7.11465C27.0014 7.59971 27.5673 7.76139 28.2949 7.76139C29.5076 7.76139 30.1543 7.03381 30.1543 7.03381L30.0735 7.43802C30.0735 7.59971 30.1543 7.68055 30.316 7.68055H31.5286C31.6903 7.68055 31.852 7.51887 31.9328 7.35718L32.6604 2.82999C32.5796 2.74915 32.4987 2.58747 32.337 2.58747ZM30.4777 5.17443C30.316 5.90201 29.7501 6.46791 28.9417 6.46791C28.5374 6.46791 28.2141 6.30623 28.0524 6.14454C27.8907 5.90201 27.8099 5.57864 27.8099 5.17443C27.8907 4.44685 28.5374 3.88095 29.265 3.88095C29.6692 3.88095 29.9118 4.04263 30.1543 4.20432C30.4777 4.44685 30.5585 4.85106 30.4777 5.17443Z" fill="#139AD6"/>
<path d="M19.6448 2.58789H18.2705C18.1088 2.58789 18.0279 2.66873 17.9471 2.74957L16.1686 5.49822L15.3601 2.91126C15.2793 2.74958 15.1985 2.66873 14.9559 2.66873H13.6624C13.5008 2.66873 13.4199 2.83042 13.4199 2.9921L14.8751 7.27676L13.5008 9.21698C13.4199 9.37867 13.5008 9.6212 13.6624 9.6212H14.9559C15.1176 9.6212 15.1985 9.54035 15.2793 9.45951L19.7256 3.07295C19.9682 2.83042 19.8065 2.58789 19.6448 2.58789Z" fill="#263B80"/>
<path d="M33.873 0.243205L32.7412 7.51904C32.7412 7.68072 32.8221 7.76157 32.9837 7.76157H34.1155C34.2772 7.76157 34.4389 7.59988 34.5197 7.4382L35.6515 0.324047C35.6515 0.162362 35.5707 0.0815195 35.409 0.0815195H34.1155C34.0347 0.000676919 33.9538 0.0815201 33.873 0.243205Z" fill="#139AD6"/>
</svg>
